<svg xmlns="http://www.w3.org/2000/svg" width="1591" height="884" viewBox="0 0 1591 884"><defs><style type="text/css"/></defs><g transform="translate(1214.7018134147131 805.1283947718439) scale(1)"><g class="relationship"><g transform="translate(-451.3508826212012 -372.3319118021299) rotate(-42.15743706873076)" stroke-width="5" stroke="#000000"><path d="M 59 0 L 190.5671993398506 0"/><polygon points="-24.8621506177483,0 -27.62461179749811,9.20820393249937 0,0 -27.62461179749811,-9.20820393249937" fill="#000000" transform="translate(215.4293499575989 0) rotate(0)" stroke="none"/></g></g><g class="relationship"><g transform="translate(-451.3508826212012 -372.3319118021299) rotate(-8.332443495083599)" stroke-width="5" stroke="#000000"><path d="M 59 0 L 107.70213743957768 0"/><polygon points="-24.8621506177483,0 -27.62461179749811,9.20820393249937 0,0 -27.62461179749811,-9.20820393249937" fill="#000000" transform="translate(132.56428805732597 0) rotate(0)" stroke="none"/></g></g><g class="relationship"><g transform="translate(-261.80876838684327 -400.0927365463583) rotate(0)" stroke-width="5" stroke="#000000"><path d="M 59 0 L 131.49928293878583 0"/><polygon points="-24.8621506177483,0 -27.62461179749811,9.20820393249937 0,0 -27.62461179749811,-9.20820393249937" fill="#000000" transform="translate(156.36143355653414 0) rotate(0)" stroke="none"/></g></g><g class="relationship"><g transform="translate(-600.2036995450879 -492.41249024783986) rotate(38.893354400829296)" stroke-width="5" stroke="#000000"><path d="M 59 0 L 107.38770278358751 0"/><polygon points="-24.8621506177483,0 -27.62461179749811,9.20820393249937 0,0 -27.62461179749811,-9.20820393249937" fill="#000000" transform="translate(132.2498534013358 0) rotate(0)" stroke="none"/></g></g><g class="relationship"><g transform="translate(-451.3508826212012 -372.3319118021299) rotate(77.90885637672275)" stroke-width="5" stroke="#000000"><path d="M 59 0 L 322.069294069919 0"/><polygon points="-24.8621506177483,0 -27.62461179749811,9.20820393249937 0,0 -27.62461179749811,-9.20820393249937" fill="#000000" transform="translate(346.9314446876673 0) rotate(0)" stroke="none"/></g></g><g class="relationship"><g transform="translate(-46.447334830309124 -400.0927365463583) rotate(-40.789398325966395)" stroke-width="5" stroke="#000000"><path d="M 59 0 L 155.58773437844366 0"/><polygon points="-24.8621506177483,0 -27.62461179749811,9.20820393249937 0,0 -27.62461179749811,-9.20820393249937" fill="#000000" transform="translate(180.44988499619197 0) rotate(0)" stroke="none"/></g></g><g class="relationship"><g transform="translate(-46.447334830309124 -400.0927365463583) rotate(43.73411562153743)" stroke-width="5" stroke="#000000"><path d="M 59 0 L 171.20473093936465 0"/><polygon points="-24.8621506177483,0 -27.62461179749811,9.20820393249937 0,0 -27.62461179749811,-9.20820393249937" fill="#000000" transform="translate(196.06688155711294 0) rotate(0)" stroke="none"/></g></g><g class="relationship"><g transform="translate(-46.447334830309124 -400.0927365463583) rotate(-1.5904497835250528e-13)" stroke-width="5" stroke="#000000"><path d="M 59 0 L 100.4378646861052 0"/><polygon points="-24.8621506177483,0 -27.62461179749811,9.20820393249937 0,0 -27.62461179749811,-9.20820393249937" fill="#000000" transform="translate(125.30001530385348 0) rotate(0)" stroke="none"/></g></g><g class="relationship"><g transform="translate(322.01638802634454 -407.1796584033644) rotate(177.7962516946141)" stroke-width="5" stroke="#000000"><path d="M 59 0 L 100.43786468610517 0"/><polygon points="-24.8621506177483,0 -27.62461179749811,9.20820393249937 0,0 -27.62461179749811,-9.20820393249937" fill="#000000" transform="translate(125.30001530385346 0) rotate(0)" stroke="none"/></g></g><g class="relationship"><g transform="translate(322.01638802634454 -407.1796584033644) rotate(-141.41434997941965)" stroke-width="5" stroke="#000000"><path d="M 59 0 L 155.58773437844366 0"/><polygon points="-24.8621506177483,0 -27.62461179749811,9.20820393249937 0,0 -27.62461179749811,-9.20820393249937" fill="#000000" transform="translate(180.44988499619197 0) rotate(0)" stroke="none"/></g></g><g class="relationship"><g transform="translate(322.01638802634454 -407.1796584033644) rotate(135.11624853110007)" stroke-width="5" stroke="#000000"><path d="M 59 0 L 176.05784087428327 0"/><polygon points="-24.8621506177483,0 -27.62461179749811,9.20820393249937 0,0 -27.62461179749811,-9.20820393249937" fill="#000000" transform="translate(200.91999149203156 0) rotate(0)" stroke="none"/></g></g><g class="relationship"><g transform="translate(-46.447334830309124 -400.0927365463583) rotate(-142.1728015030858)" stroke-width="5" stroke="#000000"><path d="M 59 0 L 171.20473093936465 0"/><polygon points="-24.8621506177483,0 -27.62461179749811,9.20820393249937 0,0 -27.62461179749811,-9.20820393249937" fill="#000000" transform="translate(196.06688155711294 0) rotate(0)" stroke="none"/></g></g><g class="relationship"><g transform="translate(-451.3508826212012 -372.3319118021299) rotate(-85.57864741556229)" stroke-width="5" stroke="#000000"><path d="M 59 0 L 208.47789022420582 0"/><polygon points="-24.8621506177483,0 -27.62461179749811,9.20820393249937 0,0 -27.62461179749811,-9.20820393249937" fill="#000000" transform="translate(233.34004084195413 0) rotate(0)" stroke="none"/></g></g><g class="relationship"><g transform="translate(-247.91547562045602 -556.5206826232401) rotate(-149.3301046776215)" stroke-width="5" stroke="#000000"><path d="M 59 0 L 126.45577407725555 0"/><polygon points="-24.8621506177483,0 -27.62461179749811,9.20820393249937 0,0 -27.62461179749811,-9.20820393249937" fill="#000000" transform="translate(151.31792469500385 0) rotate(0)" stroke="none"/></g></g><g class="relationship"><g transform="translate(-428.8142142481893 -663.8019755447385) rotate(135)" stroke-width="5" stroke="#000000"><path d="M 59 0 L 158.51918393727 0"/><polygon points="-24.8621506177483,0 -27.62461179749811,9.20820393249937 0,0 -27.62461179749811,-9.20820393249937" fill="#000000" transform="translate(183.38133455501827 0) rotate(0)" stroke="none"/></g></g><g class="relationship"><g transform="translate(-366.32146956549036 24.5941980742777) rotate(-159.09866065044278)" stroke-width="5" stroke="#000000"><path d="M 59 0 L 166.49451564629857 0"/><polygon points="-24.8621506177483,0 -27.62461179749811,9.20820393249937 0,0 -27.62461179749811,-9.20820393249937" fill="#000000" transform="translate(191.35666626404688 0) rotate(0)" stroke="none"/></g></g><g class="relationship"><g transform="translate(-600.2036995450879 -64.72300543444157) rotate(-95.43739868861044)" stroke-width="5" stroke="#000000"><path d="M 59 0 L 117.24354159094358 0"/><polygon points="-24.8621506177483,0 -27.62461179749811,9.20820393249937 0,0 -27.62461179749811,-9.20820393249937" fill="#000000" transform="translate(142.10569220869186 0) rotate(0)" stroke="none"/></g></g><g class="relationship"><g transform="translate(-619.2600981947894 -264.92378742402514) rotate(-32.606223868825566)" stroke-width="5" stroke="#000000"><path d="M 59 0 L 115.4617311851108 0"/><polygon points="-24.8621506177483,0 -27.62461179749811,9.20820393249937 0,0 -27.62461179749811,-9.20820393249937" fill="#000000" transform="translate(140.3238818028591 0) rotate(0)" stroke="none"/></g></g><g class="relationship"><g transform="translate(-451.3508826212012 -372.3319118021299) rotate(53.242469991893906)" stroke-width="5" stroke="#000000"><path d="M 59 0 L 107.70213743957768 0"/><polygon points="-24.8621506177483,0 -27.62461179749811,9.20820393249937 0,0 -27.62461179749811,-9.20820393249937" fill="#000000" transform="translate(132.56428805732597 0) rotate(0)" stroke="none"/></g></g><g class="relationship"><g transform="translate(-336.71308508028943 -218.85536038830946) rotate(-31.980008289610346)" stroke-width="5" stroke="#000000"><path d="M 59 0 L 258.33836411716266 0"/><polygon points="-24.8621506177483,0 -27.62461179749811,9.20820393249937 0,0 -27.62461179749811,-9.20820393249937" fill="#000000" transform="translate(283.200514734911 0) rotate(0)" stroke="none"/></g></g><g class="relationship"><g transform="translate(-46.447334830309124 -400.0927365463583) rotate(114.54758019482689)" stroke-width="5" stroke="#000000"><path d="M 59 0 L 212.70621567186893 0"/><polygon points="-24.8621506177483,0 -27.62461179749811,9.20820393249937 0,0 -27.62461179749811,-9.20820393249937" fill="#000000" transform="translate(237.56836628961725 0) rotate(0)" stroke="none"/></g></g><g class="relationship"><g transform="translate(-169.6562947660225 -130.32923257435633) rotate(141.7706489730897)" stroke-width="5" stroke="#000000"><path d="M 59 0 L 166.49451564629862 0"/><polygon points="-24.8621506177483,0 -27.62461179749811,9.20820393249937 0,0 -27.62461179749811,-9.20820393249937" fill="#000000" transform="translate(191.3566662640469 0) rotate(0)" stroke="none"/></g></g><g class="relationship"><g transform="translate(-822.1441116160235 -556.5206826232401) rotate(66.92895176935748)" stroke-width="5" stroke="#000000"><path d="M 59 0 L 116.33876353586083 0"/><polygon points="-24.8621506177483,0 -27.62461179749811,9.20820393249937 0,0 -27.62461179749811,-9.20820393249937" fill="#000000" transform="translate(141.20091415360912 0) rotate(0)" stroke="none"/></g></g><g class="relationship"><g transform="translate(-743.6909234631553 -372.3319118021299) rotate(0)" stroke-width="5" stroke="#000000"><path d="M 59 0 L 208.47789022420577 0"/><polygon points="-24.8621506177483,0 -27.62461179749811,9.20820393249937 0,0 -27.62461179749811,-9.20820393249937" fill="#000000" transform="translate(233.34004084195408 0) rotate(0)" stroke="none"/></g></g><g class="relationship"><g transform="translate(-1160.7018134147131 -492.41249024783986) rotate(8.555214922994363)" stroke-width="5" stroke="#000000"><path d="M 59 0 L 98.65873995487135 0"/><polygon points="-24.8621506177483,0 -27.62461179749811,9.20820393249937 0,0 -27.62461179749811,-9.20820393249937" fill="#000000" transform="translate(123.52089057261963 0) rotate(0)" stroke="none"/></g></g><g class="relationship"><g transform="translate(-980.2118395732717 -465.2602373369302) rotate(-30.000000000000025)" stroke-width="5" stroke="#000000"><path d="M 59 0 L 98.65873995487141 0"/><polygon points="-24.8621506177483,0 -27.62461179749811,9.20820393249937 0,0 -27.62461179749811,-9.20820393249937" fill="#000000" transform="translate(123.52089057261969 0) rotate(0)" stroke="none"/></g></g><g class="relationship"><g transform="translate(-980.2118395732717 -465.2602373369302) rotate(21.449707727159065)" stroke-width="5" stroke="#000000"><path d="M 59 0 L 170.25950812914118 0"/><polygon points="-24.8621506177483,0 -27.62461179749811,9.20820393249937 0,0 -27.62461179749811,-9.20820393249937" fill="#000000" transform="translate(195.12165874688947 0) rotate(0)" stroke="none"/></g></g><g class="node"><g fill="#ffffff" stroke="#000000" stroke-width="4"><circle cx="-1160.7018134147131" cy="-492.41249024783986" r="52"/></g><g transform="translate(-1160.7018134147131 -492.41249024783986)"><g transform="scale(0.3833201796996323) translate(0 -59)"><g transform="translate(0 0)"><g fill="#000000" font-family="sans-serif" font-size="50" font-weight="normal" text-anchor="middle"><text xml:space="preserve" x="0" y="43.92822265625" stroke="none">User</text></g></g><g transform="translate(0 64)"><g transform="translate(-101.4921875 0)"><g fill="#ffffff" stroke="#000000" stroke-width="4"><rect x="0" y="0" width="202.984375" height="54" rx="27" ry="27"/><text xml:space="preserve" x="27" y="38.142578125" stroke="none" font-family="sans-serif" font-size="40" font-weight="normal" fill="#000000">instance</text></g></g></g></g></g></g><g class="node"><g fill="#ffffff" stroke="#000000" stroke-width="4"><circle cx="-822.1441116160235" cy="-556.5206826232401" r="52"/></g><g transform="translate(-822.1441116160235 -556.5206826232401)"><g transform="scale(0.46484428515625) translate(0 0)"><g transform="translate(0 0)"><g font-family="sans-serif" font-size="50" font-weight="normal" fill="#000000" text-anchor="middle"><text xml:space="preserve" x="0" y="-16.07177734375" stroke="none">Create</text><text xml:space="preserve" x="0" y="43.92822265625" stroke="none" text-anchor="middle">Hero</text></g></g></g></g></g><g class="node"><g fill="#ffffff" stroke="#000000" stroke-width="4"><circle cx="-451.3508826212012" cy="-372.3319118021299" r="52"/></g><g transform="translate(-451.3508826212012 -372.3319118021299)"><g transform="scale(0.72265652734375) translate(0 0)"><g transform="translate(0 0)"><g font-family="sans-serif" font-size="50" font-weight="normal" fill="#000000" text-anchor="middle"><text xml:space="preserve" x="0" y="13.92822265625" stroke="none">Hero</text></g></g></g></g></g><g class="node"><g fill="#ffffff" stroke="#000000" stroke-width="4"><circle cx="-247.91547562045602" cy="-556.5206826232401" r="52"/></g><g transform="translate(-247.91547562045602 -556.5206826232401)"><g transform="scale(0.349610025390625) translate(0 0)"><g transform="translate(0 0)"><g font-family="sans-serif" font-size="50" font-weight="normal" fill="#000000" text-anchor="middle"><text xml:space="preserve" x="0" y="13.92822265625" stroke="none">Experience</text></g></g></g></g></g><g class="node"><g fill="#ffffff" stroke="#000000" stroke-width="4"><circle cx="-261.80876838684327" cy="-400.0927365463583" r="52"/></g><g transform="translate(-261.80876838684327 -400.0927365463583)"><g transform="scale(0.5976566523437499) translate(0 0)"><g transform="translate(0 0)"><g font-family="sans-serif" font-size="50" font-weight="normal" fill="#000000" text-anchor="middle"><text xml:space="preserve" x="0" y="13.92822265625" stroke="none">Travel</text></g></g></g></g></g><g class="node"><g fill="#ffffff" stroke="#000000" stroke-width="4"><circle cx="-46.447334830309124" cy="-400.0927365463583" r="52"/></g><g transform="translate(-46.447334830309124 -400.0927365463583)"><g transform="scale(0.6835940664062501) translate(0 0)"><g transform="translate(0 0)"><g font-family="sans-serif" font-size="50" font-weight="normal" fill="#000000" text-anchor="middle"><text xml:space="preserve" x="0" y="13.92822265625" stroke="none">Story</text></g></g></g></g></g><g class="node"><g fill="#ffffff" stroke="#000000" stroke-width="4"><circle cx="-600.2036995450879" cy="-492.41249024783986" r="52"/></g><g transform="translate(-600.2036995450879 -492.41249024783986)"><g transform="scale(0.6484378515625) translate(0 0)"><g transform="translate(0 0)"><g font-family="sans-serif" font-size="50" font-weight="normal" fill="#000000" text-anchor="middle"><text xml:space="preserve" x="0" y="13.92822265625" stroke="none">Class</text></g></g></g></g></g><g class="node"><g fill="#ffffff" stroke="#000000" stroke-width="4"><circle cx="-366.32146956549036" cy="24.5941980742777" r="52"/></g><g transform="translate(-366.32146956549036 24.5941980742777)"><g transform="scale(0.41796933203125) translate(0 0)"><g transform="translate(0 0)"><g font-family="sans-serif" font-size="50" font-weight="normal" fill="#000000" text-anchor="middle"><text xml:space="preserve" x="0" y="13.92822265625" stroke="none">Inventory</text></g></g></g></g></g><g class="node"><g fill="#ffffff" stroke="#000000" stroke-width="4"><circle cx="134.84399179856695" cy="-556.5206826232397" r="52"/></g><g transform="translate(134.84399179856695 -556.5206826232397)"><g transform="scale(0.6484378515625) translate(0 0)"><g transform="translate(0 0)"><g font-family="sans-serif" font-size="50" font-weight="normal" fill="#000000" text-anchor="middle"><text xml:space="preserve" x="0" y="13.92822265625" stroke="none">Fight </text></g></g></g></g></g><g class="node"><g fill="#ffffff" stroke="#000000" stroke-width="4"><circle cx="137.85268047354435" cy="-223.76174543512553" r="52"/></g><g transform="translate(137.85268047354435 -223.76174543512553)"><g transform="scale(0.8359376640625) translate(0 0)"><g transform="translate(0 0)"><g font-family="sans-serif" font-size="50" font-weight="normal" fill="#000000" text-anchor="middle"><text xml:space="preserve" x="0" y="13.92822265625" stroke="none">Talk</text></g></g></g></g></g><g class="node"><g fill="#ffffff" stroke="#000000" stroke-width="4"><circle cx="137.85268047354435" cy="-400.0927365463588" r="52"/></g><g transform="translate(137.85268047354435 -400.0927365463588)"><g transform="scale(0.8203126796875) translate(0 0)"><g transform="translate(0 0)"><g font-family="sans-serif" font-size="50" font-weight="normal" fill="#000000" text-anchor="middle"><text xml:space="preserve" x="0" y="13.92822265625" stroke="none">Skill</text></g></g></g></g></g><g class="node"><g fill="#ffffff" stroke="#000000" stroke-width="4"><circle cx="322.01638802634454" cy="-407.1796584033644" r="52"/></g><g transform="translate(322.01638802634454 -407.1796584033644)"><g transform="scale(0.73828151171875) translate(0 0)"><g transform="translate(0 0)"><g font-family="sans-serif" font-size="50" font-weight="normal" fill="#000000" text-anchor="middle"><text xml:space="preserve" x="0" y="13.92822265625" stroke="none">NPC</text></g></g></g></g></g><g class="node"><g fill="#ffffff" stroke="#000000" stroke-width="4"><circle cx="-428.8142142481893" cy="-663.8019755447385" r="52"/></g><g transform="translate(-428.8142142481893 -663.8019755447385)"><g transform="scale(0.6132816367187499) translate(0 0)"><g transform="translate(0 0)"><g font-family="sans-serif" font-size="50" font-weight="normal" fill="#000000" text-anchor="middle"><text xml:space="preserve" x="0" y="13.92822265625" stroke="none">Level </text></g></g></g></g></g><g class="node"><g fill="#16a5a5" stroke="#0c797d" stroke-width="4"><circle cx="-652.3287919881877" cy="-721.1283947718439" r="82"/></g><g transform="translate(-652.3287919881877 -721.1283947718439)"><g transform="scale(0.7968752031249999) translate(0 0)"><g transform="translate(0 0)"><g font-family="sans-serif" font-size="50" font-weight="normal" fill="#ffffff" text-anchor="middle"><text xml:space="preserve" x="0" y="13.92822265625" stroke="none">Rogmor</text><text xml:space="preserve" x="0" y="73.92822265625" stroke="none" text-anchor="middle"></text></g></g></g></g></g><g class="node"><g fill="#ffffff" stroke="#000000" stroke-width="4"><circle cx="-336.71308508028943" cy="-218.85536038830946" r="52"/></g><g transform="translate(-336.71308508028943 -218.85536038830946)"><g transform="scale(0.5312504687499999) translate(0 0)"><g transform="translate(0 0)"><g font-family="sans-serif" font-size="50" font-weight="normal" fill="#000000" text-anchor="middle"><text xml:space="preserve" x="0" y="13.92822265625" stroke="none">Skillset</text></g></g></g></g></g><g class="node"><g fill="#ffffff" stroke="#000000" stroke-width="4"><circle cx="-600.2036995450879" cy="-64.72300543444157" r="52"/></g><g transform="translate(-600.2036995450879 -64.72300543444157)"><g transform="scale(0.46484428515625) translate(0 0)"><g transform="translate(0 0)"><g font-family="sans-serif" font-size="50" font-weight="normal" fill="#000000" text-anchor="middle"><text xml:space="preserve" x="0" y="13.92822265625" stroke="none">Equiped</text></g></g></g></g></g><g class="node"><g fill="#ffffff" stroke="#000000" stroke-width="4"><circle cx="-619.2600981947894" cy="-264.92378742402514" r="52"/></g><g transform="translate(-619.2600981947894 -264.92378742402514)"><g transform="scale(0.58203166796875) translate(0 0)"><g transform="translate(0 0)"><g font-family="sans-serif" font-size="50" font-weight="normal" fill="#000000" text-anchor="middle"><text xml:space="preserve" x="0" y="13.92822265625" stroke="none">Bonus</text></g></g></g></g></g><g class="node"><g fill="#ffffff" stroke="#000000" stroke-width="4"><circle cx="-169.6562947660225" cy="-130.32923257435633" r="52"/></g><g transform="translate(-169.6562947660225 -130.32923257435633)"><g transform="scale(0.78125021875) translate(0 0)"><g transform="translate(0 0)"><g font-family="sans-serif" font-size="50" font-weight="normal" fill="#000000" text-anchor="middle"><text xml:space="preserve" x="0" y="13.92822265625" stroke="none">Loot</text></g></g></g></g></g><g class="node"><g fill="#ffffff" stroke="#000000" stroke-width="4"><circle cx="-743.6909234631553" cy="-372.3319118021299" r="52"/></g><g transform="translate(-743.6909234631553 -372.3319118021299)"><g transform="scale(0.78125021875) translate(0 0)"><g transform="translate(0 0)"><g font-family="sans-serif" font-size="50" font-weight="normal" fill="#000000" text-anchor="middle"><text xml:space="preserve" x="0" y="13.92822265625" stroke="none">Play</text></g></g></g></g></g><g class="node"><g fill="#ffffff" stroke="#000000" stroke-width="4"><circle cx="-980.2118395732717" cy="-465.2602373369302" r="52"/></g><g transform="translate(-980.2118395732717 -465.2602373369302)"><g transform="scale(0.66015658984375) translate(0 0)"><g transform="translate(0 0)"><g font-family="sans-serif" font-size="50" font-weight="normal" fill="#000000" text-anchor="middle"><text xml:space="preserve" x="0" y="13.92822265625" stroke="none">Login</text></g></g></g></g></g></g></svg>